<svg xmlns="http://www.w3.org/2000/svg" viewBox="0 0 64 64" fill="none">
  <rect width="64" height="64" rx="16" fill="#A3E635"/>
  <path
    d="M22 22.5a10 10 0 0 1 20 0v9a10 10 0 0 1-20 0v-9Z"
    fill="#18181B"
  />
  <path
    d="M18 30.5a2.5 2.5 0 0 1 2.5 2.5c0 6.351 5.149 11.5 11.5 11.5S43.5 39.351 43.5 33A2.5 2.5 0 1 1 48.5 33c0 8.352-6.248 15.246-14.5 16.266V54h5a2.5 2.5 0 1 1 0 5H25a2.5 2.5 0 1 1 0-5h5v-4.734C21.748 48.246 15.5 41.352 15.5 33a2.5 2.5 0 0 1 2.5-2.5Z"
    fill="#18181B"
  />
</svg>
