<svg xmlns="http://www.w3.org/2000/svg" viewBox="0 0 100 100">
  <circle cx="50" cy="50" r="50" fill="#000000" />
  <defs>
    <linearGradient id="solGradient" x1="18" y1="76" x2="82" y2="24" gradientUnits="userSpaceOnUse">
      <stop offset="0" stop-color="#9945FF" />
      <stop offset="0.45" stop-color="#5B8CFF" />
      <stop offset="1" stop-color="#14F195" />
    </linearGradient>
  </defs>
  <path
    d="M30 25h43.5c1.3 0 2.4 1.5 1.6 2.6l-8.2 9.8c-.5.7-1.3 1.1-2.1 1.1H21.3c-1.3 0-2.4-1.5-1.6-2.6l8.2-9.8c.5-.7 1.3-1.1 2.1-1.1Z"
    fill="url(#solGradient)"
  />
  <path
    d="M21.3 44.75h43.5c.8 0 1.6.4 2.1 1.1l8.2 9.8c.9 1.1-.3 2.6-1.6 2.6H30c-.8 0-1.6-.4-2.1-1.1l-8.2-9.8c-.9-1.1.3-2.6 1.6-2.6Z"
    fill="url(#solGradient)"
  />
  <path
    d="M30 61.5h43.5c1.3 0 2.4 1.5 1.6 2.6l-8.2 9.8c-.5.7-1.3 1.1-2.1 1.1H21.3c-1.3 0-2.4-1.5-1.6-2.6l8.2-9.8c.5-.7 1.3-1.1 2.1-1.1Z"
    fill="url(#solGradient)"
  />
</svg>
